<?xml version="1.0" encoding="UTF-8"?><svg xmlns="http://www.w3.org/2000/svg" xmlns:xlink="http://www.w3.org/1999/xlink" fill-opacity="1" color-rendering="auto" color-interpolation="auto" text-rendering="auto" stroke="black" stroke-linecap="square" width="1372" stroke-miterlimit="10" shape-rendering="auto" stroke-opacity="1" fill="black" stroke-dasharray="none" font-weight="normal" stroke-width="1" height="450" font-family="'Dialog'" font-style="normal" stroke-linejoin="miter" font-size="12" stroke-dashoffset="0" image-rendering="auto">
  <!--Generated by ySVG 2.5-->
  <defs id="genericDefs"/>
  <g>
    <defs id="defs1">
      <clipPath clipPathUnits="userSpaceOnUse" id="clipPath1">
        <path d="M0 0 L1372 0 L1372 450 L0 450 L0 0 Z"/>
      </clipPath>
      <clipPath clipPathUnits="userSpaceOnUse" id="clipPath2">
        <path d="M-414 52 L958 52 L958 502 L-414 502 L-414 52 Z"/>
      </clipPath>
    </defs>
    <g fill="white" text-rendering="geometricPrecision" shape-rendering="geometricPrecision" transform="translate(414,-52)" stroke="white">
      <rect x="-414" width="1372" height="450" y="52" clip-path="url(#clipPath2)" stroke="none"/>
    </g>
    <g stroke-linecap="butt" transform="matrix(1,0,0,1,414,-52)" fill="rgb(255,102,0)" text-rendering="geometricPrecision" shape-rendering="geometricPrecision" stroke="rgb(255,102,0)" stroke-width="2" stroke-miterlimit="1.45">
      <rect fill="none" x="-333.3647" width="427.5024" height="225.1367" y="146.2134" clip-path="url(#clipPath2)"/>
    </g>
    <g stroke-linecap="butt" transform="matrix(1,0,0,1,414,-52)" fill="rgb(153,153,153)" text-rendering="geometricPrecision" shape-rendering="geometricPrecision" stroke-dasharray="6,2" stroke="rgb(153,153,153)" stroke-miterlimit="1.45">
      <rect fill="none" x="405.4714" width="536.8459" height="419.5546" y="67.2127" clip-path="url(#clipPath2)"/>
    </g>
    <g text-rendering="geometricPrecision" stroke-miterlimit="1.45" shape-rendering="geometricPrecision" font-family="sans-serif" transform="matrix(1,0,0,1,414,-52)" stroke-linecap="butt">
      <text x="242.8026" xml:space="preserve" y="266.357" clip-path="url(#clipPath2)" stroke="none">vB</text>
    </g>
    <g stroke-linecap="butt" transform="matrix(1,0,0,1,414,-52)" fill="rgb(255,102,0)" text-rendering="geometricPrecision" shape-rendering="geometricPrecision" stroke="rgb(255,102,0)" stroke-width="2" stroke-miterlimit="1.45">
      <rect fill="none" x="149.4061" width="200.7969" height="173.8366" y="174.7248" clip-path="url(#clipPath2)"/>
    </g>
    <g text-rendering="geometricPrecision" stroke-miterlimit="1.45" shape-rendering="geometricPrecision" font-family="sans-serif" transform="matrix(1,0,0,1,414,-52)" stroke-linecap="butt">
      <text x="-163.3069" xml:space="preserve" y="123.7517" clip-path="url(#clipPath2)" stroke="none">couX[1], ind[1-3]</text>
      <text x="-396.7514" xml:space="preserve" y="193.5017" clip-path="url(#clipPath2)" stroke="none">couX[1]</text>
      <text x="477.3935" xml:space="preserve" y="100.3311" clip-path="url(#clipPath2)" stroke="none">apply(grtr, 1, sum)</text>
      <text x="427.6096" xml:space="preserve" y="184.4832" clip-path="url(#clipPath2)" stroke="none">couX[1]</text>
    </g>
    <g stroke-linecap="butt" transform="matrix(1,0,0,1,414,-52)" fill="rgb(255,102,0)" text-rendering="geometricPrecision" shape-rendering="geometricPrecision" stroke="rgb(255,102,0)" stroke-width="2" stroke-miterlimit="1.45">
      <rect fill="none" x="489.1013" width="73.9439" height="317.5" y="122.532" clip-path="url(#clipPath2)"/>
    </g>
    <g text-rendering="geometricPrecision" stroke-miterlimit="1.45" shape-rendering="geometricPrecision" font-family="sans-serif" transform="matrix(1,0,0,1,414,-52)" stroke-linecap="butt">
      <text x="427.6096" xml:space="preserve" y="281.5267" clip-path="url(#clipPath2)" stroke="none">couX[2]</text>
      <text x="427.6096" xml:space="preserve" y="383.227" clip-path="url(#clipPath2)" stroke="none">couX[3]</text>
      <text x="-396.7514" xml:space="preserve" y="266.357" clip-path="url(#clipPath2)" stroke="none">couX[2]</text>
      <text x="-310.1986" xml:space="preserve" font-size="25" y="198.6084" clip-path="url(#clipPath2)" stroke="none">••••••••</text>
    </g>
    <g stroke-linecap="butt" transform="matrix(1,0,0,1,414,-52)" fill="rgb(255,102,0)" text-rendering="geometricPrecision" shape-rendering="geometricPrecision" stroke="rgb(255,102,0)" stroke-width="2" stroke-miterlimit="1.45">
      <rect fill="none" x="-314.6718" width="130.6261" height="57" y="160.2878" clip-path="url(#clipPath2)"/>
    </g>
    <g text-rendering="geometricPrecision" stroke-miterlimit="1.45" shape-rendering="geometricPrecision" font-family="sans-serif" transform="matrix(1,0,0,1,414,-52)" stroke-linecap="butt">
      <text x="-396.7514" xml:space="preserve" y="332.8273" clip-path="url(#clipPath2)" stroke="none">couX[3]</text>
      <text x="-21.7709" xml:space="preserve" y="123.7517" clip-path="url(#clipPath2)" stroke="none">couX[3], ind[1-3]</text>
      <text x="-309.9818" xml:space="preserve" y="123.7517" clip-path="url(#clipPath2)" stroke="none">couX[2], ind[1-3]</text>
      <text x="-145.3237" xml:space="preserve" y="408.9622" clip-path="url(#clipPath2)" stroke="none">[n(couX), 69 * 34]</text>
      <text x="497.0517" xml:space="preserve" y="464.2719" clip-path="url(#clipPath2)" stroke="none">[69 * 34, 1]</text>
      <text x="518.4683" xml:space="preserve" font-size="25" y="154.3056" clip-path="url(#clipPath2)" stroke="none">•</text>
      <text x="518.4683" xml:space="preserve" font-size="25" y="184.9331" clip-path="url(#clipPath2)" stroke="none">•</text>
      <text x="518.4683" xml:space="preserve" font-size="25" y="215.5605" clip-path="url(#clipPath2)" stroke="none">•</text>
    </g>
    <g stroke-linecap="butt" transform="matrix(1,0,0,1,414,-52)" fill="rgb(255,102,0)" text-rendering="geometricPrecision" shape-rendering="geometricPrecision" stroke="rgb(255,102,0)" stroke-width="2" stroke-miterlimit="1.45">
      <rect fill="none" x="504.2832" width="43.58" height="84.3506" y="132.9372" clip-path="url(#clipPath2)"/>
    </g>
    <g font-size="25" stroke-linecap="butt" transform="matrix(1,0,0,1,414,-52)" text-rendering="geometricPrecision" font-family="sans-serif" shape-rendering="geometricPrecision" stroke-miterlimit="1.45">
      <text x="518.2863" xml:space="preserve" y="256.006" clip-path="url(#clipPath2)" stroke="none">•</text>
      <text x="518.2863" xml:space="preserve" y="286.6334" clip-path="url(#clipPath2)" stroke="none">•</text>
      <text x="518.2863" xml:space="preserve" y="317.2608" clip-path="url(#clipPath2)" stroke="none">•</text>
    </g>
    <g stroke-linecap="butt" transform="matrix(1,0,0,1,414,-52)" fill="rgb(255,102,0)" text-rendering="geometricPrecision" shape-rendering="geometricPrecision" stroke="rgb(255,102,0)" stroke-width="2" stroke-miterlimit="1.45">
      <rect fill="none" x="504.1013" width="43.58" height="84.3506" y="234.6375" clip-path="url(#clipPath2)"/>
    </g>
    <g font-size="25" stroke-linecap="butt" transform="matrix(1,0,0,1,414,-52)" text-rendering="geometricPrecision" font-family="sans-serif" shape-rendering="geometricPrecision" stroke-miterlimit="1.45">
      <text x="518.2863" xml:space="preserve" y="357.7063" clip-path="url(#clipPath2)" stroke="none">•</text>
      <text x="518.2863" xml:space="preserve" y="388.3337" clip-path="url(#clipPath2)" stroke="none">•</text>
      <text x="518.2863" xml:space="preserve" y="418.9612" clip-path="url(#clipPath2)" stroke="none">•</text>
    </g>
    <g stroke-linecap="butt" transform="matrix(1,0,0,1,414,-52)" fill="rgb(255,102,0)" text-rendering="geometricPrecision" shape-rendering="geometricPrecision" stroke="rgb(255,102,0)" stroke-width="2" stroke-miterlimit="1.45">
      <rect fill="none" x="504.1013" width="43.58" height="84.3506" y="336.3378" clip-path="url(#clipPath2)"/>
      <rect fill="none" x="612.442" width="311.4355" height="326.084" y="118.24" clip-path="url(#clipPath2)"/>
    </g>
    <g font-size="25" stroke-linecap="butt" transform="matrix(1,0,0,1,414,-52)" text-rendering="geometricPrecision" font-family="sans-serif" shape-rendering="geometricPrecision" stroke-miterlimit="1.45">
      <text x="632.9301" xml:space="preserve" y="157.2202" clip-path="url(#clipPath2)" stroke="none">•</text>
    </g>
    <g stroke-linecap="butt" transform="matrix(1,0,0,1,414,-52)" fill="rgb(255,102,0)" text-rendering="geometricPrecision" shape-rendering="geometricPrecision" stroke="rgb(255,102,0)" stroke-width="2" stroke-miterlimit="1.45">
      <rect fill="none" x="626.8521" width="27.3657" height="30" y="132.3996" clip-path="url(#clipPath2)"/>
    </g>
    <g font-size="25" stroke-linecap="butt" transform="matrix(1,0,0,1,414,-52)" text-rendering="geometricPrecision" font-family="sans-serif" shape-rendering="geometricPrecision" stroke-miterlimit="1.45">
      <text x="660.2957" xml:space="preserve" y="187.2202" clip-path="url(#clipPath2)" stroke="none">•</text>
    </g>
    <g stroke-linecap="butt" transform="matrix(1,0,0,1,414,-52)" fill="rgb(255,102,0)" text-rendering="geometricPrecision" shape-rendering="geometricPrecision" stroke="rgb(255,102,0)" stroke-width="2" stroke-miterlimit="1.45">
      <rect fill="none" x="654.2179" width="27.3657" height="30" y="162.3996" clip-path="url(#clipPath2)"/>
    </g>
    <g font-size="25" stroke-linecap="butt" transform="matrix(1,0,0,1,414,-52)" text-rendering="geometricPrecision" font-family="sans-serif" shape-rendering="geometricPrecision" stroke-miterlimit="1.45">
      <text x="687.6614" xml:space="preserve" y="217.2202" clip-path="url(#clipPath2)" stroke="none">•</text>
    </g>
    <g stroke-linecap="butt" transform="matrix(1,0,0,1,414,-52)" fill="rgb(255,102,0)" text-rendering="geometricPrecision" shape-rendering="geometricPrecision" stroke="rgb(255,102,0)" stroke-width="2" stroke-miterlimit="1.45">
      <rect fill="none" x="681.5836" width="27.3657" height="30" y="192.3996" clip-path="url(#clipPath2)"/>
    </g>
    <g font-size="25" stroke-linecap="butt" transform="matrix(1,0,0,1,414,-52)" text-rendering="geometricPrecision" font-family="sans-serif" shape-rendering="geometricPrecision" stroke-miterlimit="1.45">
      <text x="717.6614" xml:space="preserve" y="247.2202" clip-path="url(#clipPath2)" stroke="none">•</text>
    </g>
    <g stroke-linecap="butt" transform="matrix(1,0,0,1,414,-52)" fill="rgb(255,102,0)" text-rendering="geometricPrecision" shape-rendering="geometricPrecision" stroke="rgb(255,102,0)" stroke-width="2" stroke-miterlimit="1.45">
      <rect fill="none" x="711.5836" width="27.3657" height="30" y="222.3996" clip-path="url(#clipPath2)"/>
    </g>
    <g font-size="25" stroke-linecap="butt" transform="matrix(1,0,0,1,414,-52)" text-rendering="geometricPrecision" font-family="sans-serif" shape-rendering="geometricPrecision" stroke-miterlimit="1.45">
      <text x="745.0272" xml:space="preserve" y="277.2202" clip-path="url(#clipPath2)" stroke="none">•</text>
    </g>
    <g stroke-linecap="butt" transform="matrix(1,0,0,1,414,-52)" fill="rgb(255,102,0)" text-rendering="geometricPrecision" shape-rendering="geometricPrecision" stroke="rgb(255,102,0)" stroke-width="2" stroke-miterlimit="1.45">
      <rect fill="none" x="738.9493" width="27.3657" height="30" y="252.3996" clip-path="url(#clipPath2)"/>
    </g>
    <g font-size="25" stroke-linecap="butt" transform="matrix(1,0,0,1,414,-52)" text-rendering="geometricPrecision" font-family="sans-serif" shape-rendering="geometricPrecision" stroke-miterlimit="1.45">
      <text x="772.3929" xml:space="preserve" y="307.2202" clip-path="url(#clipPath2)" stroke="none">•</text>
    </g>
    <g stroke-linecap="butt" transform="matrix(1,0,0,1,414,-52)" fill="rgb(255,102,0)" text-rendering="geometricPrecision" shape-rendering="geometricPrecision" stroke="rgb(255,102,0)" stroke-width="2" stroke-miterlimit="1.45">
      <rect fill="none" x="766.315" width="27.3657" height="30" y="282.3996" clip-path="url(#clipPath2)"/>
    </g>
    <g font-size="25" stroke-linecap="butt" transform="matrix(1,0,0,1,414,-52)" text-rendering="geometricPrecision" font-family="sans-serif" shape-rendering="geometricPrecision" stroke-miterlimit="1.45">
      <text x="799.7586" xml:space="preserve" y="337.2202" clip-path="url(#clipPath2)" stroke="none">•</text>
    </g>
    <g stroke-linecap="butt" transform="matrix(1,0,0,1,414,-52)" fill="rgb(255,102,0)" text-rendering="geometricPrecision" shape-rendering="geometricPrecision" stroke="rgb(255,102,0)" stroke-width="2" stroke-miterlimit="1.45">
      <rect fill="none" x="793.6807" width="27.3657" height="30" y="312.3996" clip-path="url(#clipPath2)"/>
    </g>
    <g font-size="25" stroke-linecap="butt" transform="matrix(1,0,0,1,414,-52)" text-rendering="geometricPrecision" font-family="sans-serif" shape-rendering="geometricPrecision" stroke-miterlimit="1.45">
      <text x="827.1243" xml:space="preserve" y="367.2202" clip-path="url(#clipPath2)" stroke="none">•</text>
    </g>
    <g stroke-linecap="butt" transform="matrix(1,0,0,1,414,-52)" fill="rgb(255,102,0)" text-rendering="geometricPrecision" shape-rendering="geometricPrecision" stroke="rgb(255,102,0)" stroke-width="2" stroke-miterlimit="1.45">
      <rect fill="none" x="821.0464" width="27.3657" height="30" y="342.3996" clip-path="url(#clipPath2)"/>
    </g>
    <g font-size="25" stroke-linecap="butt" transform="matrix(1,0,0,1,414,-52)" text-rendering="geometricPrecision" font-family="sans-serif" shape-rendering="geometricPrecision" stroke-miterlimit="1.45">
      <text x="854.4901" xml:space="preserve" y="397.2202" clip-path="url(#clipPath2)" stroke="none">•</text>
    </g>
    <g stroke-linecap="butt" transform="matrix(1,0,0,1,414,-52)" fill="rgb(255,102,0)" text-rendering="geometricPrecision" shape-rendering="geometricPrecision" stroke="rgb(255,102,0)" stroke-width="2" stroke-miterlimit="1.45">
      <rect fill="none" x="848.4121" width="27.3657" height="30" y="372.3996" clip-path="url(#clipPath2)"/>
    </g>
    <g font-size="25" stroke-linecap="butt" transform="matrix(1,0,0,1,414,-52)" text-rendering="geometricPrecision" font-family="sans-serif" shape-rendering="geometricPrecision" stroke-miterlimit="1.45">
      <text x="881.8557" xml:space="preserve" y="427.2202" clip-path="url(#clipPath2)" stroke="none">•</text>
    </g>
    <g stroke-linecap="butt" transform="matrix(1,0,0,1,414,-52)" fill="rgb(255,102,0)" text-rendering="geometricPrecision" shape-rendering="geometricPrecision" stroke="rgb(255,102,0)" stroke-width="2" stroke-miterlimit="1.45">
      <rect fill="none" x="875.7779" width="27.3657" height="30" y="402.3996" clip-path="url(#clipPath2)"/>
    </g>
    <g text-rendering="geometricPrecision" stroke-miterlimit="1.45" shape-rendering="geometricPrecision" font-family="sans-serif" transform="matrix(1,0,0,1,414,-52)" stroke-linecap="butt">
      <text x="196.9334" xml:space="preserve" y="375.547" clip-path="url(#clipPath2)" stroke="none">[69 * 34, 69 * 34]</text>
      <text x="-179.5726" xml:space="preserve" font-size="25" y="271.4637" clip-path="url(#clipPath2)" stroke="none">••••••••</text>
    </g>
    <g stroke-linecap="butt" transform="matrix(1,0,0,1,414,-52)" fill="rgb(255,102,0)" text-rendering="geometricPrecision" shape-rendering="geometricPrecision" stroke="rgb(255,102,0)" stroke-width="2" stroke-miterlimit="1.45">
      <rect fill="none" x="-184.0458" width="130.6261" height="57" y="233.1431" clip-path="url(#clipPath2)"/>
    </g>
    <g font-size="25" stroke-linecap="butt" transform="matrix(1,0,0,1,414,-52)" text-rendering="geometricPrecision" font-family="sans-serif" shape-rendering="geometricPrecision" stroke-miterlimit="1.45">
      <text x="-48.9466" xml:space="preserve" y="337.934" clip-path="url(#clipPath2)" stroke="none">••••••••</text>
    </g>
    <g stroke-linecap="butt" transform="matrix(1,0,0,1,414,-52)" fill="rgb(255,102,0)" text-rendering="geometricPrecision" shape-rendering="geometricPrecision" stroke="rgb(255,102,0)" stroke-width="2" stroke-miterlimit="1.45">
      <rect fill="none" x="-53.4197" width="130.6261" height="57" y="299.6134" clip-path="url(#clipPath2)"/>
    </g>
    <g text-rendering="geometricPrecision" stroke-miterlimit="1.45" shape-rendering="geometricPrecision" font-family="sans-serif" transform="matrix(1,0,0,1,414,-52)" stroke-linecap="butt">
      <text x="108.3529" xml:space="preserve" y="267.0073" clip-path="url(#clipPath2)" stroke="none">%*%</text>
      <text x="364.8323" xml:space="preserve" y="266.357" clip-path="url(#clipPath2)" stroke="none">%*%</text>
    </g>
    <g stroke-linecap="butt" transform="matrix(1,0,0,1,414,-52)" fill="lime" text-rendering="geometricPrecision" shape-rendering="geometricPrecision" stroke="lime" stroke-width="3" stroke-miterlimit="1.45">
      <path d="M597.442 275.032 L600.292 279.782 L563.0452 279.782 L563.0452 282.782 L600.292 282.782 L597.442 287.532 L612.442 281.282 L597.442 275.032 Z" stroke="none" clip-path="url(#clipPath2)"/>
      <path fill="none" d="M597.442 275.032 L600.292 279.782 L563.0452 279.782 L563.0452 282.782 L600.292 282.782 L597.442 287.532 L612.442 281.282 L597.442 275.032 Z" stroke-width="1" clip-path="url(#clipPath2)" stroke="black"/>
    </g>
    <g text-rendering="geometricPrecision" stroke-miterlimit="1.45" shape-rendering="geometricPrecision" font-family="sans-serif" transform="matrix(1,0,0,1,414,-52)" stroke-linecap="butt">
      <text x="572.4037" xml:space="preserve" y="315.9958" clip-path="url(#clipPath2)" stroke="none">diag()</text>
    </g>
  </g>
</svg>
