<?xml version="1.0" encoding="UTF-8"?><svg xmlns="http://www.w3.org/2000/svg" xmlns:xlink="http://www.w3.org/1999/xlink" fill-opacity="1" color-rendering="auto" color-interpolation="auto" text-rendering="auto" stroke="black" stroke-linecap="square" width="241" stroke-miterlimit="10" shape-rendering="auto" stroke-opacity="1" fill="black" stroke-dasharray="none" font-weight="normal" stroke-width="1" height="265" font-family="'Dialog'" font-style="normal" stroke-linejoin="miter" font-size="12" stroke-dashoffset="0" image-rendering="auto">
  <!--Generated by ySVG 2.5-->
  <defs id="genericDefs"/>
  <g>
    <defs id="defs1">
      <clipPath clipPathUnits="userSpaceOnUse" id="clipPath1">
        <path d="M0 0 L241 0 L241 265 L0 265 L0 0 Z"/>
      </clipPath>
      <clipPath clipPathUnits="userSpaceOnUse" id="clipPath2">
        <path d="M-15 -29 L226 -29 L226 236 L-15 236 L-15 -29 Z"/>
      </clipPath>
    </defs>
    <g fill="white" text-rendering="geometricPrecision" shape-rendering="geometricPrecision" transform="translate(15,29)" stroke="white">
      <rect x="-15" width="241" height="265" y="-29" clip-path="url(#clipPath2)" stroke="none"/>
    </g>
    <g text-rendering="geometricPrecision" stroke-miterlimit="1.45" shape-rendering="geometricPrecision" font-family="sans-serif" transform="matrix(1,0,0,1,15,29)" stroke-linecap="butt">
      <text x="6" xml:space="preserve" y="197.5812" clip-path="url(#clipPath2)" stroke="none">r: 2346</text>
      <text x="6" xml:space="preserve" y="211.5499" clip-path="url(#clipPath2)" stroke="none">c: 62</text>
      <rect x="0" y="-13.62" clip-path="url(#clipPath2)" fill="none" width="210.8" rx="4" ry="4" height="234" stroke="rgb(24,117,198)"/>
      <rect x="38.552" y="14" clip-path="url(#clipPath2)" fill="none" width="21" rx="4" ry="4" height="23.4" stroke="rgb(255,102,0)"/>
      <rect x="38.552" y="79.344" clip-path="url(#clipPath2)" fill="none" width="21" rx="4" ry="4" height="23.4" stroke="rgb(255,102,0)"/>
      <rect x="89.872" y="14" clip-path="url(#clipPath2)" fill="none" width="21" rx="4" ry="4" height="23.4" stroke="rgb(255,102,0)"/>
      <rect x="89.872" y="79.344" clip-path="url(#clipPath2)" fill="none" width="21" rx="4" ry="4" height="23.4" stroke="rgb(255,102,0)"/>
      <rect x="161.312" y="79.344" clip-path="url(#clipPath2)" fill="none" width="21" rx="4" ry="4" height="23.4" stroke="rgb(255,102,0)"/>
      <rect x="161.312" y="14" clip-path="url(#clipPath2)" fill="none" width="21" rx="4" ry="4" height="23.4" stroke="rgb(255,102,0)"/>
      <rect x="161.312" y="168.44" clip-path="url(#clipPath2)" fill="none" width="21" rx="4" ry="4" height="23.4" stroke="rgb(255,102,0)"/>
      <rect x="89.872" y="168.44" clip-path="url(#clipPath2)" fill="none" width="21" rx="4" ry="4" height="23.4" stroke="rgb(255,102,0)"/>
      <rect x="89.872" y="110.424" clip-path="url(#clipPath2)" fill="none" width="21" rx="4" ry="4" height="23.4" stroke="rgb(255,102,0)"/>
      <rect x="161.312" y="110.424" clip-path="url(#clipPath2)" fill="none" width="21" rx="4" ry="4" height="23.4" stroke="rgb(255,102,0)"/>
      <rect x="38.552" y="110.424" clip-path="url(#clipPath2)" fill="none" width="21" rx="4" ry="4" height="23.4" stroke="rgb(255,102,0)"/>
      <rect x="38.552" y="168.44" clip-path="url(#clipPath2)" fill="none" width="21" rx="4" ry="4" height="23.4" stroke="rgb(255,102,0)"/>
    </g>
  </g>
</svg>
