<?xml version="1.0" encoding="UTF-8"?><svg xmlns="http://www.w3.org/2000/svg" xmlns:xlink="http://www.w3.org/1999/xlink" fill-opacity="1" color-rendering="auto" color-interpolation="auto" text-rendering="auto" stroke="black" stroke-linecap="square" width="86" stroke-miterlimit="10" shape-rendering="auto" stroke-opacity="1" fill="black" stroke-dasharray="none" font-weight="normal" stroke-width="1" height="265" font-family="'Dialog'" font-style="normal" stroke-linejoin="miter" font-size="12" stroke-dashoffset="0" image-rendering="auto">
  <!--Generated by ySVG 2.5-->
  <defs id="genericDefs"/>
  <g>
    <defs id="defs1">
      <clipPath clipPathUnits="userSpaceOnUse" id="clipPath1">
        <path d="M0 0 L86 0 L86 265 L0 265 L0 0 Z"/>
      </clipPath>
      <clipPath clipPathUnits="userSpaceOnUse" id="clipPath2">
        <path d="M129 -29 L215 -29 L215 236 L129 236 L129 -29 Z"/>
      </clipPath>
    </defs>
    <g fill="white" text-rendering="geometricPrecision" shape-rendering="geometricPrecision" transform="translate(-129,29)" stroke="white">
      <rect x="129" width="86" height="265" y="-29" clip-path="url(#clipPath2)" stroke="none"/>
    </g>
    <g stroke-linecap="butt" transform="matrix(1,0,0,1,-129,29)" fill="rgb(255,102,0)" text-rendering="geometricPrecision" shape-rendering="geometricPrecision" stroke="rgb(255,102,0)" stroke-miterlimit="1.45">
      <rect x="161.312" y="79.344" clip-path="url(#clipPath2)" fill="none" width="21" rx="4" ry="4" height="23.4"/>
      <rect x="161.312" y="14" clip-path="url(#clipPath2)" fill="none" width="21" rx="4" ry="4" height="23.4"/>
      <rect x="161.312" y="168.44" clip-path="url(#clipPath2)" fill="none" width="21" rx="4" ry="4" height="23.4"/>
      <rect x="161.312" y="110.424" clip-path="url(#clipPath2)" fill="none" width="21" rx="4" ry="4" height="23.4"/>
      <text x="150.235" y="100.5499" clip-path="url(#clipPath2)" fill="black" font-family="sans-serif" stroke="none" xml:space="preserve">r: 2346</text>
      <text x="150.235" y="114.5187" clip-path="url(#clipPath2)" fill="black" font-family="sans-serif" stroke="none" xml:space="preserve">c: 1</text>
      <rect x="144.4" y="-13.62" clip-path="url(#clipPath2)" fill="none" width="55" rx="4" ry="4" height="234" stroke="rgb(24,117,198)"/>
    </g>
  </g>
</svg>
