<?xml version="1.0" encoding="UTF-8"?><svg xmlns="http://www.w3.org/2000/svg" xmlns:xlink="http://www.w3.org/1999/xlink" fill-opacity="1" color-rendering="auto" color-interpolation="auto" text-rendering="auto" stroke="black" stroke-linecap="square" width="241" stroke-miterlimit="10" shape-rendering="auto" stroke-opacity="1" fill="black" stroke-dasharray="none" font-weight="normal" stroke-width="1" height="245" font-family="'Dialog'" font-style="normal" stroke-linejoin="miter" font-size="12" stroke-dashoffset="0" image-rendering="auto">
  <!--Generated by ySVG 2.5-->
  <defs id="genericDefs"/>
  <g>
    <defs id="defs1">
      <clipPath clipPathUnits="userSpaceOnUse" id="clipPath1">
        <path d="M0 0 L241 0 L241 245 L0 245 L0 0 Z"/>
      </clipPath>
      <clipPath clipPathUnits="userSpaceOnUse" id="clipPath2">
        <path d="M-15 -19 L226 -19 L226 226 L-15 226 L-15 -19 Z"/>
      </clipPath>
    </defs>
    <g fill="white" text-rendering="geometricPrecision" shape-rendering="geometricPrecision" transform="translate(15,19)" stroke="white">
      <rect x="-15" width="241" height="245" y="-19" clip-path="url(#clipPath2)" stroke="none"/>
    </g>
    <g text-rendering="geometricPrecision" stroke-miterlimit="1.45" shape-rendering="geometricPrecision" font-family="sans-serif" transform="matrix(1,0,0,1,15,19)" stroke-linecap="butt">
      <text x="6" xml:space="preserve" y="187.0421" clip-path="url(#clipPath2)" stroke="none">r: 2346</text>
      <text x="6" xml:space="preserve" y="201.7433" clip-path="url(#clipPath2)" stroke="none">c: 62</text>
      <rect x="0" y="-3.62" clip-path="url(#clipPath2)" fill="none" width="210.8" rx="4" ry="4" height="214" stroke="rgb(24,117,198)"/>
      <rect x="15.58" y="14.46" clip-path="url(#clipPath2)" fill="none" width="21" rx="4" ry="4" height="23.4" stroke="rgb(255,102,0)"/>
      <rect x="41.16" y="39.92" clip-path="url(#clipPath2)" fill="none" width="21" rx="4" ry="4" height="23.4" stroke="rgb(255,102,0)"/>
      <rect x="66.32" y="65.84" clip-path="url(#clipPath2)" fill="none" width="21" rx="4" ry="4" height="23.4" stroke="rgb(255,102,0)"/>
      <rect x="91.64" y="91.68" clip-path="url(#clipPath2)" fill="none" width="21" rx="4" ry="4" height="23.4" stroke="rgb(255,102,0)"/>
      <rect x="117.28" y="117.36" clip-path="url(#clipPath2)" fill="none" width="21" rx="4" ry="4" height="23.4" stroke="rgb(255,102,0)"/>
      <rect x="142.56" y="142.72" clip-path="url(#clipPath2)" fill="none" width="21" rx="4" ry="4" height="23.4" stroke="rgb(255,102,0)"/>
      <rect x="168.12" y="168.44" clip-path="url(#clipPath2)" fill="none" width="21" rx="4" ry="4" height="23.4" stroke="rgb(255,102,0)"/>
    </g>
  </g>
</svg>
