<?xml version="1.0" encoding="UTF-8"?><svg xmlns="http://www.w3.org/2000/svg" xmlns:xlink="http://www.w3.org/1999/xlink" fill-opacity="1" color-rendering="auto" color-interpolation="auto" text-rendering="auto" stroke="black" stroke-linecap="square" width="241" stroke-miterlimit="10" shape-rendering="auto" stroke-opacity="1" fill="black" stroke-dasharray="none" font-weight="normal" stroke-width="1" height="245" font-family="'Dialog'" font-style="normal" stroke-linejoin="miter" font-size="12" stroke-dashoffset="0" image-rendering="auto">
  <!--Generated by ySVG 2.5-->
  <defs id="genericDefs"/>
  <g>
    <defs id="defs1">
      <clipPath clipPathUnits="userSpaceOnUse" id="clipPath1">
        <path d="M0 0 L241 0 L241 245 L0 245 L0 0 Z"/>
      </clipPath>
      <clipPath clipPathUnits="userSpaceOnUse" id="clipPath2">
        <path d="M240 -20 L481 -20 L481 225 L240 225 L240 -20 Z"/>
      </clipPath>
    </defs>
    <g fill="white" text-rendering="geometricPrecision" shape-rendering="geometricPrecision" transform="translate(-240,20)" stroke="white">
      <rect x="240" width="241" height="245" y="-20" clip-path="url(#clipPath2)" stroke="none"/>
    </g>
    <g text-rendering="geometricPrecision" stroke-miterlimit="1.45" shape-rendering="geometricPrecision" font-family="sans-serif" transform="matrix(1,0,0,1,-240,20)" stroke-linecap="butt">
      <text x="261" xml:space="preserve" y="186.4212" clip-path="url(#clipPath2)" stroke="none">r: 34</text>
      <text x="261" xml:space="preserve" y="200.3899" clip-path="url(#clipPath2)" stroke="none">c: 2108</text>
    </g>
    <g stroke-linecap="butt" transform="matrix(1,0,0,1,-240,20)" fill="rgb(24,117,198)" text-rendering="geometricPrecision" shape-rendering="geometricPrecision" stroke-dasharray="6,2" stroke="rgb(24,117,198)" stroke-miterlimit="1.45">
      <rect x="255" y="-4.78" clip-path="url(#clipPath2)" fill="none" width="210.8" rx="4" ry="4" height="214"/>
    </g>
    <g fill="rgb(255,102,0)" text-rendering="geometricPrecision" shape-rendering="geometricPrecision" transform="matrix(1,0,0,1,-240,20)" stroke="rgb(255,102,0)">
      <rect x="271.5056" y="15.984" clip-path="url(#clipPath2)" width="1" rx="4" ry="4" height="21" stroke="none"/>
      <rect stroke-linecap="butt" x="271.5056" y="15.984" clip-path="url(#clipPath2)" fill="none" width="1" rx="4" ry="4" height="21" stroke-miterlimit="1.45"/>
      <rect x="279.6512" y="53.384" clip-path="url(#clipPath2)" width="1" rx="4" ry="4" height="21" stroke="none"/>
      <rect stroke-linecap="butt" x="279.6512" y="53.384" clip-path="url(#clipPath2)" fill="none" width="1" rx="4" ry="4" height="21" stroke-miterlimit="1.45"/>
      <rect x="287.5024" y="91.72" clip-path="url(#clipPath2)" width="1" rx="4" ry="4" height="21" stroke="none"/>
      <rect stroke-linecap="butt" x="287.5024" y="91.72" clip-path="url(#clipPath2)" fill="none" width="1" rx="4" ry="4" height="21" stroke-miterlimit="1.45"/>
      <rect x="296.8608" y="131.416" clip-path="url(#clipPath2)" width="1" rx="4" ry="4" height="21" stroke="none"/>
      <rect stroke-linecap="butt" x="296.8608" y="131.416" clip-path="url(#clipPath2)" fill="none" width="1" rx="4" ry="4" height="21" stroke-miterlimit="1.45"/>
      <rect x="308.6976" y="167.736" clip-path="url(#clipPath2)" width="1" rx="4" ry="4" height="21" stroke="none"/>
      <rect stroke-linecap="butt" x="308.6976" y="167.736" clip-path="url(#clipPath2)" fill="none" width="1" rx="4" ry="4" height="21" stroke-miterlimit="1.45"/>
      <rect x="319.636" y="15.984" clip-path="url(#clipPath2)" width="1" rx="4" ry="4" height="21" stroke="none"/>
      <rect stroke-linecap="butt" x="319.636" y="15.984" clip-path="url(#clipPath2)" fill="none" width="1" rx="4" ry="4" height="21" stroke-miterlimit="1.45"/>
      <rect x="327.7816" y="53.384" clip-path="url(#clipPath2)" width="1" rx="4" ry="4" height="21" stroke="none"/>
      <rect stroke-linecap="butt" x="327.7816" y="53.384" clip-path="url(#clipPath2)" fill="none" width="1" rx="4" ry="4" height="21" stroke-miterlimit="1.45"/>
      <rect x="335.6328" y="91.72" clip-path="url(#clipPath2)" width="1" rx="4" ry="4" height="21" stroke="none"/>
      <rect stroke-linecap="butt" x="335.6328" y="91.72" clip-path="url(#clipPath2)" fill="none" width="1" rx="4" ry="4" height="21" stroke-miterlimit="1.45"/>
      <rect x="344.9912" y="131.416" clip-path="url(#clipPath2)" width="1" rx="4" ry="4" height="21" stroke="none"/>
      <rect stroke-linecap="butt" x="344.9912" y="131.416" clip-path="url(#clipPath2)" fill="none" width="1" rx="4" ry="4" height="21" stroke-miterlimit="1.45"/>
      <rect x="356.828" y="167.736" clip-path="url(#clipPath2)" width="1" rx="4" ry="4" height="21" stroke="none"/>
      <rect stroke-linecap="butt" x="356.828" y="167.736" clip-path="url(#clipPath2)" fill="none" width="1" rx="4" ry="4" height="21" stroke-miterlimit="1.45"/>
      <rect x="367.7664" y="15.984" clip-path="url(#clipPath2)" width="1" rx="4" ry="4" height="21" stroke="none"/>
      <rect stroke-linecap="butt" x="367.7664" y="15.984" clip-path="url(#clipPath2)" fill="none" width="1" rx="4" ry="4" height="21" stroke-miterlimit="1.45"/>
      <rect x="375.912" y="53.384" clip-path="url(#clipPath2)" width="1" rx="4" ry="4" height="21" stroke="none"/>
      <rect stroke-linecap="butt" x="375.912" y="53.384" clip-path="url(#clipPath2)" fill="none" width="1" rx="4" ry="4" height="21" stroke-miterlimit="1.45"/>
      <rect x="383.7632" y="91.72" clip-path="url(#clipPath2)" width="1" rx="4" ry="4" height="21" stroke="none"/>
      <rect stroke-linecap="butt" x="383.7632" y="91.72" clip-path="url(#clipPath2)" fill="none" width="1" rx="4" ry="4" height="21" stroke-miterlimit="1.45"/>
      <rect x="393.1216" y="131.416" clip-path="url(#clipPath2)" width="1" rx="4" ry="4" height="21" stroke="none"/>
      <rect stroke-linecap="butt" x="393.1216" y="131.416" clip-path="url(#clipPath2)" fill="none" width="1" rx="4" ry="4" height="21" stroke-miterlimit="1.45"/>
      <rect x="404.9584" y="167.736" clip-path="url(#clipPath2)" width="1" rx="4" ry="4" height="21" stroke="none"/>
      <rect stroke-linecap="butt" x="404.9584" y="167.736" clip-path="url(#clipPath2)" fill="none" width="1" rx="4" ry="4" height="21" stroke-miterlimit="1.45"/>
      <rect x="415.8968" y="15.984" clip-path="url(#clipPath2)" width="1" rx="4" ry="4" height="21" stroke="none"/>
      <rect stroke-linecap="butt" x="415.8968" y="15.984" clip-path="url(#clipPath2)" fill="none" width="1" rx="4" ry="4" height="21" stroke-miterlimit="1.45"/>
      <rect x="424.0424" y="53.384" clip-path="url(#clipPath2)" width="1" rx="4" ry="4" height="21" stroke="none"/>
      <rect stroke-linecap="butt" x="424.0424" y="53.384" clip-path="url(#clipPath2)" fill="none" width="1" rx="4" ry="4" height="21" stroke-miterlimit="1.45"/>
      <rect x="431.8936" y="91.72" clip-path="url(#clipPath2)" width="1" rx="4" ry="4" height="21" stroke="none"/>
      <rect stroke-linecap="butt" x="431.8936" y="91.72" clip-path="url(#clipPath2)" fill="none" width="1" rx="4" ry="4" height="21" stroke-miterlimit="1.45"/>
      <rect x="441.252" y="131.416" clip-path="url(#clipPath2)" width="1" rx="4" ry="4" height="21" stroke="none"/>
      <rect stroke-linecap="butt" x="441.252" y="131.416" clip-path="url(#clipPath2)" fill="none" width="1" rx="4" ry="4" height="21" stroke-miterlimit="1.45"/>
      <rect x="453.0888" y="167.736" clip-path="url(#clipPath2)" width="1" rx="4" ry="4" height="21" stroke="none"/>
      <rect stroke-linecap="butt" x="453.0888" y="167.736" clip-path="url(#clipPath2)" fill="none" width="1" rx="4" ry="4" height="21" stroke-miterlimit="1.45"/>
    </g>
  </g>
</svg>
