<?xml version="1.0" encoding="UTF-8"?><svg xmlns="http://www.w3.org/2000/svg" xmlns:xlink="http://www.w3.org/1999/xlink" fill-opacity="1" color-rendering="auto" color-interpolation="auto" text-rendering="auto" stroke="black" stroke-linecap="square" width="241" stroke-miterlimit="10" shape-rendering="auto" stroke-opacity="1" fill="black" stroke-dasharray="none" font-weight="normal" stroke-width="1" height="245" font-family="'Dialog'" font-style="normal" stroke-linejoin="miter" font-size="12" stroke-dashoffset="0" image-rendering="auto">
  <!--Generated by ySVG 2.5-->
  <defs id="genericDefs"/>
  <g>
    <defs id="defs1">
      <clipPath clipPathUnits="userSpaceOnUse" id="clipPath1">
        <path d="M0 0 L241 0 L241 245 L0 245 L0 0 Z"/>
      </clipPath>
      <clipPath clipPathUnits="userSpaceOnUse" id="clipPath2">
        <path d="M-15 -19 L226 -19 L226 226 L-15 226 L-15 -19 Z"/>
      </clipPath>
    </defs>
    <g fill="white" text-rendering="geometricPrecision" shape-rendering="geometricPrecision" transform="translate(15,19)" stroke="white">
      <rect x="-15" width="241" height="245" y="-19" clip-path="url(#clipPath2)" stroke="none"/>
    </g>
    <g text-rendering="geometricPrecision" stroke-miterlimit="1.45" shape-rendering="geometricPrecision" font-family="sans-serif" transform="matrix(1,0,0,1,15,19)" stroke-linecap="butt">
      <text x="6" xml:space="preserve" y="187.0421" clip-path="url(#clipPath2)" stroke="none">r: 2346</text>
      <text x="6" xml:space="preserve" y="201.7433" clip-path="url(#clipPath2)" stroke="none">c: 34</text>
      <rect x="0" y="-3.62" clip-path="url(#clipPath2)" fill="none" width="210.8" rx="4" ry="4" height="214" stroke="rgb(24,117,198)"/>
    </g>
    <g fill="rgb(255,102,0)" text-rendering="geometricPrecision" shape-rendering="geometricPrecision" transform="matrix(1,0,0,1,15,19)" stroke="rgb(255,102,0)">
      <rect x="15.58" y="12.86" clip-path="url(#clipPath2)" width="21" rx="4" ry="4" height="1" stroke="none"/>
      <rect stroke-linecap="butt" x="15.58" y="12.86" clip-path="url(#clipPath2)" fill="none" width="21" rx="4" ry="4" height="1" stroke-miterlimit="1.45"/>
      <rect x="15.58" y="39.72" clip-path="url(#clipPath2)" width="21" rx="4" ry="4" height="1" stroke="none"/>
      <rect stroke-linecap="butt" x="15.58" y="39.72" clip-path="url(#clipPath2)" fill="none" width="21" rx="4" ry="4" height="1" stroke-miterlimit="1.45"/>
      <rect x="15.58" y="66.58" clip-path="url(#clipPath2)" width="21" rx="4" ry="4" height="1" stroke="none"/>
      <rect stroke-linecap="butt" x="15.58" y="66.58" clip-path="url(#clipPath2)" fill="none" width="21" rx="4" ry="4" height="1" stroke-miterlimit="1.45"/>
      <rect x="15.58" y="93.44" clip-path="url(#clipPath2)" width="21" rx="4" ry="4" height="1" stroke="none"/>
      <rect stroke-linecap="butt" x="15.58" y="93.44" clip-path="url(#clipPath2)" fill="none" width="21" rx="4" ry="4" height="1" stroke-miterlimit="1.45"/>
      <rect x="15.58" y="120.3" clip-path="url(#clipPath2)" width="21" rx="4" ry="4" height="1" stroke="none"/>
      <rect stroke-linecap="butt" x="15.58" y="120.3" clip-path="url(#clipPath2)" fill="none" width="21" rx="4" ry="4" height="1" stroke-miterlimit="1.45"/>
      <rect x="15.58" y="147.16" clip-path="url(#clipPath2)" width="21" rx="4" ry="4" height="1" stroke="none"/>
      <rect stroke-linecap="butt" x="15.58" y="147.16" clip-path="url(#clipPath2)" fill="none" width="21" rx="4" ry="4" height="1" stroke-miterlimit="1.45"/>
      <rect x="15.58" y="174.02" clip-path="url(#clipPath2)" width="21" rx="4" ry="4" height="1" stroke="none"/>
      <rect stroke-linecap="butt" x="15.58" y="174.02" clip-path="url(#clipPath2)" fill="none" width="21" rx="4" ry="4" height="1" stroke-miterlimit="1.45"/>
      <rect x="54.984" y="17" clip-path="url(#clipPath2)" width="21" rx="4" ry="4" height="1" stroke="none"/>
      <rect stroke-linecap="butt" x="54.984" y="17" clip-path="url(#clipPath2)" fill="none" width="21" rx="4" ry="4" height="1" stroke-miterlimit="1.45"/>
      <rect x="54.984" y="43.86" clip-path="url(#clipPath2)" width="21" rx="4" ry="4" height="1" stroke="none"/>
      <rect stroke-linecap="butt" x="54.984" y="43.86" clip-path="url(#clipPath2)" fill="none" width="21" rx="4" ry="4" height="1" stroke-miterlimit="1.45"/>
      <rect x="54.984" y="70.72" clip-path="url(#clipPath2)" width="21" rx="4" ry="4" height="1" stroke="none"/>
      <rect stroke-linecap="butt" x="54.984" y="70.72" clip-path="url(#clipPath2)" fill="none" width="21" rx="4" ry="4" height="1" stroke-miterlimit="1.45"/>
      <rect x="54.984" y="97.58" clip-path="url(#clipPath2)" width="21" rx="4" ry="4" height="1" stroke="none"/>
      <rect stroke-linecap="butt" x="54.984" y="97.58" clip-path="url(#clipPath2)" fill="none" width="21" rx="4" ry="4" height="1" stroke-miterlimit="1.45"/>
      <rect x="54.984" y="124.44" clip-path="url(#clipPath2)" width="21" rx="4" ry="4" height="1" stroke="none"/>
      <rect stroke-linecap="butt" x="54.984" y="124.44" clip-path="url(#clipPath2)" fill="none" width="21" rx="4" ry="4" height="1" stroke-miterlimit="1.45"/>
      <rect x="54.984" y="151.3" clip-path="url(#clipPath2)" width="21" rx="4" ry="4" height="1" stroke="none"/>
      <rect stroke-linecap="butt" x="54.984" y="151.3" clip-path="url(#clipPath2)" fill="none" width="21" rx="4" ry="4" height="1" stroke-miterlimit="1.45"/>
      <rect x="54.984" y="178.16" clip-path="url(#clipPath2)" width="21" rx="4" ry="4" height="1" stroke="none"/>
      <rect stroke-linecap="butt" x="54.984" y="178.16" clip-path="url(#clipPath2)" fill="none" width="21" rx="4" ry="4" height="1" stroke-miterlimit="1.45"/>
      <rect x="94.9" y="21.14" clip-path="url(#clipPath2)" width="21" rx="4" ry="4" height="1" stroke="none"/>
      <rect stroke-linecap="butt" x="94.9" y="21.14" clip-path="url(#clipPath2)" fill="none" width="21" rx="4" ry="4" height="1" stroke-miterlimit="1.45"/>
      <rect x="94.9" y="48" clip-path="url(#clipPath2)" width="21" rx="4" ry="4" height="1" stroke="none"/>
      <rect stroke-linecap="butt" x="94.9" y="48" clip-path="url(#clipPath2)" fill="none" width="21" rx="4" ry="4" height="1" stroke-miterlimit="1.45"/>
      <rect x="94.9" y="74.86" clip-path="url(#clipPath2)" width="21" rx="4" ry="4" height="1" stroke="none"/>
      <rect stroke-linecap="butt" x="94.9" y="74.86" clip-path="url(#clipPath2)" fill="none" width="21" rx="4" ry="4" height="1" stroke-miterlimit="1.45"/>
      <rect x="94.9" y="101.72" clip-path="url(#clipPath2)" width="21" rx="4" ry="4" height="1" stroke="none"/>
      <rect stroke-linecap="butt" x="94.9" y="101.72" clip-path="url(#clipPath2)" fill="none" width="21" rx="4" ry="4" height="1" stroke-miterlimit="1.45"/>
      <rect x="94.9" y="128.58" clip-path="url(#clipPath2)" width="21" rx="4" ry="4" height="1" stroke="none"/>
      <rect stroke-linecap="butt" x="94.9" y="128.58" clip-path="url(#clipPath2)" fill="none" width="21" rx="4" ry="4" height="1" stroke-miterlimit="1.45"/>
      <rect x="94.9" y="155.44" clip-path="url(#clipPath2)" width="21" rx="4" ry="4" height="1" stroke="none"/>
      <rect stroke-linecap="butt" x="94.9" y="155.44" clip-path="url(#clipPath2)" fill="none" width="21" rx="4" ry="4" height="1" stroke-miterlimit="1.45"/>
      <rect x="94.9" y="182.3" clip-path="url(#clipPath2)" width="21" rx="4" ry="4" height="1" stroke="none"/>
      <rect stroke-linecap="butt" x="94.9" y="182.3" clip-path="url(#clipPath2)" fill="none" width="21" rx="4" ry="4" height="1" stroke-miterlimit="1.45"/>
      <rect x="131.272" y="25.28" clip-path="url(#clipPath2)" width="21" rx="4" ry="4" height="1" stroke="none"/>
      <rect stroke-linecap="butt" x="131.272" y="25.28" clip-path="url(#clipPath2)" fill="none" width="21" rx="4" ry="4" height="1" stroke-miterlimit="1.45"/>
      <rect x="131.272" y="52.14" clip-path="url(#clipPath2)" width="21" rx="4" ry="4" height="1" stroke="none"/>
      <rect stroke-linecap="butt" x="131.272" y="52.14" clip-path="url(#clipPath2)" fill="none" width="21" rx="4" ry="4" height="1" stroke-miterlimit="1.45"/>
      <rect x="131.272" y="79" clip-path="url(#clipPath2)" width="21" rx="4" ry="4" height="1" stroke="none"/>
      <rect stroke-linecap="butt" x="131.272" y="79" clip-path="url(#clipPath2)" fill="none" width="21" rx="4" ry="4" height="1" stroke-miterlimit="1.45"/>
      <rect x="131.272" y="105.86" clip-path="url(#clipPath2)" width="21" rx="4" ry="4" height="1" stroke="none"/>
      <rect stroke-linecap="butt" x="131.272" y="105.86" clip-path="url(#clipPath2)" fill="none" width="21" rx="4" ry="4" height="1" stroke-miterlimit="1.45"/>
      <rect x="131.272" y="132.72" clip-path="url(#clipPath2)" width="21" rx="4" ry="4" height="1" stroke="none"/>
      <rect stroke-linecap="butt" x="131.272" y="132.72" clip-path="url(#clipPath2)" fill="none" width="21" rx="4" ry="4" height="1" stroke-miterlimit="1.45"/>
      <rect x="131.272" y="159.58" clip-path="url(#clipPath2)" width="21" rx="4" ry="4" height="1" stroke="none"/>
      <rect stroke-linecap="butt" x="131.272" y="159.58" clip-path="url(#clipPath2)" fill="none" width="21" rx="4" ry="4" height="1" stroke-miterlimit="1.45"/>
      <rect x="131.272" y="186.44" clip-path="url(#clipPath2)" width="21" rx="4" ry="4" height="1" stroke="none"/>
      <rect stroke-linecap="butt" x="131.272" y="186.44" clip-path="url(#clipPath2)" fill="none" width="21" rx="4" ry="4" height="1" stroke-miterlimit="1.45"/>
      <rect x="168.652" y="29.42" clip-path="url(#clipPath2)" width="21" rx="4" ry="4" height="1" stroke="none"/>
      <rect stroke-linecap="butt" x="168.652" y="29.42" clip-path="url(#clipPath2)" fill="none" width="21" rx="4" ry="4" height="1" stroke-miterlimit="1.45"/>
      <rect x="168.652" y="56.28" clip-path="url(#clipPath2)" width="21" rx="4" ry="4" height="1" stroke="none"/>
      <rect stroke-linecap="butt" x="168.652" y="56.28" clip-path="url(#clipPath2)" fill="none" width="21" rx="4" ry="4" height="1" stroke-miterlimit="1.45"/>
      <rect x="168.652" y="83.14" clip-path="url(#clipPath2)" width="21" rx="4" ry="4" height="1" stroke="none"/>
      <rect stroke-linecap="butt" x="168.652" y="83.14" clip-path="url(#clipPath2)" fill="none" width="21" rx="4" ry="4" height="1" stroke-miterlimit="1.45"/>
      <rect x="168.652" y="110" clip-path="url(#clipPath2)" width="21" rx="4" ry="4" height="1" stroke="none"/>
      <rect stroke-linecap="butt" x="168.652" y="110" clip-path="url(#clipPath2)" fill="none" width="21" rx="4" ry="4" height="1" stroke-miterlimit="1.45"/>
      <rect x="168.652" y="136.86" clip-path="url(#clipPath2)" width="21" rx="4" ry="4" height="1" stroke="none"/>
      <rect stroke-linecap="butt" x="168.652" y="136.86" clip-path="url(#clipPath2)" fill="none" width="21" rx="4" ry="4" height="1" stroke-miterlimit="1.45"/>
      <rect x="168.652" y="163.72" clip-path="url(#clipPath2)" width="21" rx="4" ry="4" height="1" stroke="none"/>
      <rect stroke-linecap="butt" x="168.652" y="163.72" clip-path="url(#clipPath2)" fill="none" width="21" rx="4" ry="4" height="1" stroke-miterlimit="1.45"/>
      <rect x="168.652" y="190.58" clip-path="url(#clipPath2)" width="21" rx="4" ry="4" height="1" stroke="none"/>
      <rect stroke-linecap="butt" x="168.652" y="190.58" clip-path="url(#clipPath2)" fill="none" width="21" rx="4" ry="4" height="1" stroke-miterlimit="1.45"/>
    </g>
  </g>
</svg>
